<svg xmlns="http://www.w3.org/2000/svg" viewBox="0 0 841.9 595.3"><path d="M425 467.3h-5c-1.8-.4-3.5-1-5.3-1.1-17.1-.9-33.7-4.1-49.7-10-62.6-22.7-107.3-80.7-110.6-150.9-1.2-25.3 3.1-50 13.8-73C298.1 168 349 134 419.6 130.7c29.7-1.4 58 6.1 83.8 21 53.2 30.9 82.4 77.3 86.3 138.8 2.3 36-7 69.5-27.1 99.5-28.7 43-69 68.1-120.3 74.9-5.8.9-11.6 1.6-17.3 2.4zm-83.6-173.4c-5.8 17.3-8.5 34.8-5.8 53 2.9 19.5 15.1 43.2 24.5 46.2-8.8-20.3-14.8-40.7-9.4-63.9 2.2 17.9 7.1 33.7 16.8 47.6 9.7 13.9 22.1 24.4 38.7 29.5-14-12.4-26.4-25.6-31-44.7 6.1 6.7 11.3 13.7 17.8 19.2 6.4 5.5 13.5 10.5 21.1 13.9 7.8 3.5 16.4 5.4 24.8 7.2 10.2 2.1 21.3.9 24.9-1.8-9.5-2.7-19.2-5.1-28.6-8.2-9.5-3.1-17.8-8.4-24.9-15.7 16.6 7.8 34 10.9 52 9.2 17.9-1.8 34.2-8 48.1-20-18.1 6.2-36.3 10.8-57 7.7 2.5-.8 3.5-1.1 4.6-1.4 15.5-3.4 29.8-9.6 42.7-18.7 19.2-13.5 33.2-30.7 37.9-54.3 1-4.8 2.5-9.8-.2-15.1-11 25.3-22.1 50.3-50.2 61.5 9.6-9.7 18.2-20.2 24.5-32.4 6.4-12.3 10.2-25.3 10.4-39.2.3-13.7-2.6-26.7-10.3-38.6 6.5 24.8 2.3 47.1-14.2 66.8 4.9-20.5 4.8-40.9-1.5-61.1-7-22.4-26.9-43.5-39.8-46.2 17.8 16.1 26.7 35.1 25.4 58.3-7.1-18.6-17.5-34.7-33.8-46.6-16.3-11.9-44.8-19.9-55.8-14.7 24.2 4.8 44.1 15 57 36.4-22.4-16.4-29-19.7-44.3-23.1-14.7-3.2-45 .5-48.3 7.3 19.3-1.4 38.3-1.8 56.8 8.7-23.8-4.3-36.7-3.8-53.3 1.8-18.5 6.2-40.4 21.8-42.1 30 6.6-3 13-6.8 19.9-8.9 6.7-2 14-3 21.1-3.2 7-.3 14 .9 21 1.4 0 .4-.1.9-.1 1.3-51.5 6.5-72.2 40.6-74.8 62.5 10.9-15.6 22.2-30.7 41.6-36.5-12.6 11.7-23.2 24.8-28 41.7-4.7 16.5-2.6 43.8 4.6 49.9-.6-24.2 1-47.4 17.2-66.8zm-7.9-111.4c1.9 1.1 3.9 2.7 4.3 2.3 4.4-3.6 8.7-7.5 12.8-11.4 2.8-2.6 4.9-6.5 8.2-8.1 9.7-4.9 20.3-5 30.7-2.8 2.9.6 6.3 1.8 8.3 3.8 7.9 8.5 16.4 10.4 26.9 5.3 9.3-4.5 9.3-4.3 20-4.4 6.8 0 13.6-.6 20.4-1.4 5.2-.6 9.9-.4 14.2 2.9 6.3 4.9 12.6 9.8 19 14.6 3.9 2.9 5.7 6.2 5.6 11.3-.1 7.2 4.1 12 10 12.2 1.7.1 3.4-1.3 5.1-2-1.2-1.1-2.3-2.6-3.7-3.2-2.8-1.2-5.2-2.2-5-4.7 3.5.7 6.7 1.9 9.8 1.9 1.3 0 2.6-2.5 4.4-4.5-10.8-1.5-11.1-1.7-11.3-7.8 1.2 3.8 3.8 6 6.9 4.1 2-1.3 3.8-4.7 3.7-7.1-.2-2.2-2.6-5.3-4.8-6.1-2.1-.8-5.9 0-7.6 1.6-3 2.7-4.9 2.3-7.6.1-7.1-5.6-14.3-10.9-21.4-16.5-1.4-1.1-2.8-2.5-3.6-4-1.6-3-3.7-4-7-3-1.2.4-2.7.6-3.9.4-10.1-1.7-20.1-3.5-30.6-5.4-.3-4.4 2.8-5.8 7.1-6.3 1.1-.1 2.2-1.2 3.2-1.8-.6-.9-1.1-2.1-2-2.6-7-4.3-16.7-.7-19.2 7-.5 1.4-.8 2.9-1.4 4.3-2.9 6.8-10.7 8.9-16.6 4.4-.9-.7-1.9-2.3-1.6-3.1.3-1 1.8-1.7 2.2-2.1 1.8 2 3.8 4.8 4.3 4.5 2.9-1.5 6.6-3.2 7.9-5.8 1.2-2.6 1-7.4-.7-9.5-1.4-1.8-5.9-1.4-9-1.5-.9 0-1.8 1.7-2.6 2.6.9.8 1.8 1.8 2.8 2.4 1 .5 2.3.6 3.5.9.1.5.3 1 .4 1.5-8.2-1-15.6-.8-16 9.6-20.1-5.2-38.4-2.1-55.7 7.6-8.1 4.5-14.6 10.6-17.5 19.7-.5 1.6-.4 3.4-.5 5.2.4.1.9.3 1.3.4 2.6-2 5-4.3 6.3-5.5zm74.1 263.1c.7 3.7-.9 6.1-5.7 6.5-1.3.1-2.5 1.6-3.7 2.4 1.2.9 2.4 2.6 3.8 2.7 8.9.9 15.9.5 17.6-10.8 1.3-8.5 8.9-11.9 16.2-7.9 1.1.6 2.5 2.2 2.5 3.2-.1 1.1-1.7 2.1-2.1 2.5-2-1.9-4.1-4.5-4.5-4.2-2.8 1.7-6 3.6-7.7 6.2-2.1 3.2-1.7 7.8 1.8 9.8 2.4 1.4 6.2.4 9.4.2.7-.1 1.8-1.8 1.7-2.5-.1-.8-1.5-1.5-2.5-1.9-1.2-.5-2.6-.7-3.9-1-.1-.6-.3-1.3-.4-1.9 8.8 1.8 14.9-.3 15.5-9.7 25.5 1.8 38.2-.9 54.4-11.3 8.1-5.2 14.4-11.8 16.7-21.5.3-1.4 0-3 0-4.5-.4-.2-.9-.5-1.3-.7-2 2.7-4 5.5-6 8.2-.2-.7-.3-1.4-.5-2.2-1.3-.7-3.3-2.2-3.7-1.9-4.2 3.9-9.2 7.5-12 12.3-2.2 3.8-4.3 7-8.1 9-7.5 4-15.7 5.7-24.1 5.3-6.5-.4-13.2-.5-17.9-6.8-1.7-2.3-5.7-3.4-8.8-4-8.3-1.4-15.2 2.3-21.5 7.4-1.4 1.1-3.4 2-5.1 2-5.3.3-10.7-.6-15.9.2-22.6 3.4-22.6 3.5-41.4-9.7-.3-.2-.5-.4-.8-.6-6-4-11.4-7.8-11.7-16.5-.2-6.3-5.6-10.1-10.8-9.6-1.5.2-2.9 1.7-4.4 2.5 1.2.9 2.2 2.2 3.6 2.7 4.7 1.6 4.8 1.4 5.3 6-3.7-2.9-7.3-5.8-11.4-1.4-.7.7-.8 2-1.2 3 1 .3 2 .5 3 .8 2.1.6 5.5.6 6.1 1.9 1.1 2.1.6 5.2.2 7.7-.1.4-2.5.5-3.9.8 1.5-1.5 3.2-1.8 4.2-2.9.5-.5.1-3-.7-3.5-1.4-.9-3.4-1.6-4.9-1.3-3.5.7-5.1 3.7-4.2 6.8.7 2.4 2.6 5.4 4.8 6.3 2.1.8 6.1.2 7.6-1.4 3.5-3.6 6-2.7 9.4-.3 6.6 4.7 13.6 9 20.2 13.8 4.9 3.6 8.2 7.7 16.3 6.5 9.8-1.2 19.9 2 30.5 3.3zM568.2 312c3.9-.6 5.5 1.3 5.9 5.2.2 1.6 1.5 3 2.3 4.5 1.1-1.5 3.1-2.8 3.3-4.4 1.1-8 1.3-14-9.1-16.9-8-2.2-10.6-9.1-6.7-16 .6-1.1 2.1-2.3 3.2-2.4.9 0 1.8 1.7 2.1 2-1.9 2-4.5 3.9-4.2 4.5 1.1 2.7 2.6 6.2 5 7.3 2.5 1.2 6.8 1.1 9.1-.3 1.7-1.1 1.8-5.2 1.9-8 0-1.1-1.8-2.3-2.9-3.4-.8 1.2-1.6 2.3-2.3 3.5-.4.7-.8 1.4-1.1 2.2.7-7.8-.6-13.9-9.8-15.1 4.6-17.6 2.5-34-4.7-49.8-4-8.8-9.4-16.6-18.6-20.7-2.1-.9-4.5-1-6.8-1.5-.2.5-.4 1.1-.6 1.6 2 2.1 4 4.3 6.2 6.7-3.7.3-4.6 2.1-2.6 4.5 3.8 4.5 5.9 10.4 12.3 12.6 2 .7 4.3 3.2 4.8 5.3 1.9 7.7 4.1 15.5 4.3 23.3.2 7.3-1.3 14.7-8.2 19.9-4.2 3.2-5.2 8.8-4.1 13.8 1.1 4.9 3.6 9.5 5.4 14.3.7 1.8 2.1 3.6 2.1 5.4.2 10.3.3 20.5-.1 30.8-.1 3.8-1.1 7.9-3 11.1-4 6.5-9 12.3-13.5 18.6-2.8 3.9-6.1 5.8-11.2 5.8-7.1 0-11.5 4.7-11.1 10.8.1 1.3 1.4 2.6 2.2 3.9.9-1 1.8-2 2.6-3.1l3.9-5.7c.4.3.8.6 1.1.9-4.6 7.6-4.2 10.1 1.7 12.1 3.1-8.5 3.1-8.5 5.1-9.3-2.2 3.4-3.4 6.8.7 9.5 3.5 2.3 8.2.8 10.2-3 1.9-3.5.5-6.3-1.6-9.2-.9-1.2-1.8-3.8-1.2-4.5 7.1-9.2 14.5-18.1 21.7-27.1 1-1.2 1.8-2.8 2-4.2.6-4.2.7-8.4 1.2-12.6 1.1-7.9 2.1-15.3 3.1-22.9zm-268.6 70.7c1-1.8 2.7-3.8 2.3-4.3-3.1-4.3-5.8-9.5-10-12-5-2.9-7.8-6.5-9.5-11.5-2.9-8.9-3.2-18-1.2-27.1.7-2.9 1.7-6.6 3.8-8.2 8.5-6.3 9.4-17.7 5-25.2-4-6.9-5.4-13.3-4.3-21.3 1-6.9-.9-14.2-1-21.4-.1-3 .2-6.5 1.7-8.9 4.7-7.3 10.1-14.1 15.2-21.1 2.6-3.6 5.7-5.4 10.5-5.3 6.9.2 11.9-4.5 11.7-10.4 0-1.4-1.3-2.8-2-4.1-1 1-2.6 1.9-3 3.2-.9 2.5-1.5 5.1-5.2 4.9 4.8-7.9 4.2-11.5-1.4-12.2-1 3.1-2 6.3-3 9.4-.7-.1-1.3-.3-2-.4 2.4-3.5 3.1-7.4-.8-9.1-2.3-1-6.4-.4-8.5 1.1-3.5 2.4-3.1 6.3-.8 9.8l.9 1.2c2.3 2 1.6 4 0 6.1-5.4 7.2-10.7 14.5-16.2 21.6-4.1 5.3-5.2 7.4-6.1 14.4-.1.7-.3 1.3-.4 2-1.2 7.7-2.3 15.4-3.6 23.1-.2 1.4-1.3 2.6-2 3.8-1.5-1.1-3.1-2-4.3-3.4-.6-.7-.1-2.3-.5-3.4s-1.3-2.1-2-3.1c-1 .9-2.5 1.7-2.9 2.9-3.3 9.4-.4 15 9.2 18.5 7.3 2.6 9.9 8.8 6.4 15.6-.6 1.2-2.1 2.7-3.1 2.7-1.1 0-2.2-1.7-3-2.4 2-1.4 4.8-2.7 4.6-3.2-.7-2.6-1.6-6-3.6-7.1-2.7-1.5-6.6-2-9.6-1.3-1.5.3-2.9 4.2-3 6.5-.1 1.8 1.8 3.8 2.9 5.6.9-1.6 1.7-3.2 2.6-4.7.2-.4.7-.6 2-1.8-.8 7.9-1 15 8.7 15.8-.3 1.8-.4 3.3-.8 4.7-4.3 19.5.2 37.3 10.4 53.9 3.8 6.1 9.1 10.6 16 13 1.4.5 3.1.2 4.7.3.1-.4.2-.8.4-1.2-1.8-2.3-3.8-4.4-5.2-6z" fill="#f1861a"/></svg>