<svg xmlns="http://www.w3.org/2000/svg" viewBox="0 0 842 595"><path fill="#c8161e" d="M469.5 81.9c.2.1.3.2.5.3 2.1.9 3.1 2.3 3.1 4.6v37.3c0 1.7 0 1.7 1.8 1.7h12.7c10.3.2 19 8.3 20 18.6.1 1 .1 2 .1 3v117.4c0 1.3-.4 2.1-1.5 2.7l-49.8 28.8c-.4.2-.8.5-1.5.8v-1.8-78.6c0-4.9-1.8-8.7-6.1-11-1.6-.9-3.7-1.3-5.5-1.4-7-.1-13.9-.2-20.9 0-6.6.2-11.3 5.1-11.3 11.8v81.8c-2.3-1.3-4.3-2.5-6.4-3.7-15.8-9.1-31.5-18.3-47.3-27.4-1-.6-1.3-1.2-1.3-2.3V147.1c0-10.5 6.6-18.8 16.7-20.8 1.6-.3 3.2-.4 4.9-.4h15.2v-1.7c0-12 .1-24 0-36 0-3 .8-5.1 3.6-6.2 24.3-.1 48.6-.1 73-.1zM210.4 399.9c.6-2 2.2-3.1 3.9-4.2 10.4-6 20.7-12 31-18 .4-.2.7-.4 1.2-.7-.2-.4-.4-.8-.7-1.2-2.6-4.6-5.4-9.2-7.9-13.9-4.8-9.3-1.8-20.9 7.1-26.5 6.7-4.3 13.8-8.1 20.7-12.1 26.4-15.3 52.8-30.6 79.2-46 1-.6 1.7-.6 2.7 0 17.5 10.2 35 20.3 52.4 30.4.3.2.7.4 1.2.7-.5.3-.9.6-1.3.8l-65.7 38.1c-4.5 2.6-7 6.3-6.5 11.6.1 1.6.7 3.3 1.5 4.7 3.3 6 6.7 11.9 10.2 17.8 3.5 6.1 10.3 7.7 16.5 4.1 22.5-13 45-26.1 67.5-39.2.4-.3.9-.5 1.5-.9 0 .5.1.9.1 1.3v58.5c0 .9-.3 1.4-1.1 1.9l-101.4 58.8c-8.3 4.8-17.3 4-24.5-2.2-1.7-1.5-3.1-3.4-4.3-5.3-2.2-3.5-4.1-7.1-6.2-10.6-.2-.4-.4-.7-.7-1.2-2 1.2-4 2.3-6 3.4-9 5.2-18 10.4-27 15.7-3.4 1.9-5.6 1.4-7.5-1.9-11.6-20.1-23.1-40.2-34.6-60.3l-1.2-2.4c-.1-.1-.1-.6-.1-1.2zM438.8 345.7c4.1 2.4 8 4.6 11.8 6.9 19.1 11.1 38.2 22.2 57.2 33.2 5.2 3 10.8 2.4 14.7-1.8.8-.8 1.4-1.8 1.9-2.7 3.2-5.5 6.4-11.1 9.6-16.7 3.8-6.7 2-13.3-4.6-17.1-21.8-12.6-43.6-25.3-65.4-37.9-.4-.2-.7-.4-1.2-.7.4-.3.7-.5 1-.7 17.6-10.2 35.3-20.5 52.9-30.7.8-.5 1.3-.4 2.1 0 32.7 19 65.4 37.9 98.1 56.9 7.7 4.5 11.3 11.2 10.8 20.1-.2 3.2-1.3 6.2-2.9 9-2.3 4.1-4.7 8.1-7 12.2-.3.4-.5.9-.8 1.4 3.4 2 6.7 3.9 10 5.8 7.7 4.5 15.4 8.9 23.1 13.4 3.1 1.8 3.8 4.2 2 7.4l-34.8 60.6c-1.8 3.1-4.2 3.7-7.3 1.9-10.4-6-20.8-12.1-31.2-18.1-.6-.3-1.2-.7-1.9-1.1-.2.3-.5.6-.6.8-2 3.5-4 7-6.1 10.5-6.3 10.8-18.4 14.1-29.2 7.8-24.5-14.2-49-28.4-73.4-42.6l-27.9-16.2c-.7-.4-1-.7-1-1.6v-59.1c.1-.2.1-.4.1-.9z"/></svg>